<svg width="180" height="69" fill="none" xmlns="http://www.w3.org/2000/svg"><path fill-rule="evenodd" clip-rule="evenodd" d="M105.06 40.138h18.401l-1.336 3.724h-15.626l-1.439-3.724zM7.504 36.31v-7.034l7.299 7.034h9.766L14.7 27.207l9.766-7.552h-9.149l-7.813 6.207v-5.38L0 13.656V36.31h7.504zm89.538 0h1.747l-1.747-4.862V19.655h-7.505v5.69H80.08v-5.69h-7.504V36.31h7.504v-6.103h9.457v6.103h7.505zm-56.745-4.862c6.168 0 8.018-2.69 8.018-5.69v-.517c0-3.103-1.747-5.586-8.018-5.586H25.083V36.31h7.504v-4.862h7.71zm-7.71-7.241h6.27c1.337 0 1.748.517 1.748 1.241 0 .724-.41 1.242-1.747 1.242h-6.27v-2.483zm28.064 5.172h-4.626l2.262-5.069 2.364 5.07zm3.187 6.931l-1.028-2.276h-8.84l-1.03 2.276h-7.607l7.916-16.655h10.382l8.43 16.655h-8.224zm67.333-4.862l-1.748 4.862h43.484c5.448 0 7.093-2.276 7.093-4.862v-.207c0-3-2.262-3.93-4.112-4.344 1.439-.31 3.084-1.345 3.084-3.31v-.208c0-1.862-1.336-3.724-6.168-3.724h-16.962v11.793h-2.672V19.655h-17.579l-4.42 11.793zm7.093 0l2.57-6.93h4.831v6.93h-7.401zm31.662-7.655c1.131 0 1.542.31 1.542.931 0 .62-.411.931-1.542.931h-6.477v-1.862h6.477zm.308 5.897c1.542 0 1.851.517 1.851 1.138 0 .62-.309 1.241-1.851 1.241h-6.887v-2.38h6.887z" fill="#171717"/><path fill-rule="evenodd" clip-rule="evenodd" d="M114.209 69c-5.757 0-10.383-4.655-10.485-10.448V51.93l5.859 5.69v.93c0 2.483 2.056 4.552 4.523 4.552 2.467 0 4.523-2.069 4.523-4.551 0-1.345-.514-2.483-1.439-3.31l-7.813-7.552h8.43c2.57 2.482.72.724 3.392 3.207 2.056 1.862 3.29 4.655 3.29 7.655.103 5.69-4.523 10.448-10.28 10.448zm16.242-48.103L117.293 36.31h7.401l5.757-15.413zM108.144 24L122.33 7.345l3.084-3.724 3.084-3.724 6.682 7.758-2.365 6.414-3.7 4.345-14.803 17.38-.309.413h-10.588l-1.645-4.655 3.187-3.724L108.144 24z" fill="#E85235"/></svg>